<svg xmlns="http://www.w3.org/2000/svg" width="36.253" height="29.778" viewBox="0 0 36.253 29.778">
  <path id="ios-airplane" d="M62.377,84.3c-.275,0-1.2.008-1.457.024l-5.252.138a.15.15,0,0,1-.138-.073L47.658,72.6a1.3,1.3,0,0,0-1.092-.6H44.648c-.453,0-.607.453-.445.874,0,0,3.077,8.612,4.054,11.555s-.032.218-.146.218l-9.9.146a.652.652,0,0,1-.534-.251L34.679,80.9a1.284,1.284,0,0,0-1.02-.494H32.3a.322.322,0,0,0-.307.429L33.6,86.4a1.319,1.319,0,0,1,0,.963l-1.61,5.559a.322.322,0,0,0,.307.429h1.351a1.309,1.309,0,0,0,1.02-.494l3.051-3.7a.663.663,0,0,1,.534-.251l9.848.218a.161.161,0,0,1,.146.218L44.2,100.9c-.162.421-.008.874.445.874h1.918a1.29,1.29,0,0,0,1.092-.6L55.532,89.4a.159.159,0,0,1,.138-.073l5.252.138c.267.016,1.181.024,1.457.024,3.585,0,5.85-1.157,5.85-2.589S65.97,84.3,62.377,84.3Z" transform="translate(-31.974 -72)" fill="#fff"/>
</svg>
