<svg id="logo-instagram" xmlns="http://www.w3.org/2000/svg" width="24" height="24" viewBox="0 0 24 24">
  <path id="Trazado_6" data-name="Trazado 6" d="M81,66a5.015,5.015,0,0,1,5,5V81a5.015,5.015,0,0,1-5,5H71a5.015,5.015,0,0,1-5-5V71a5.015,5.015,0,0,1,5-5H81m0-2H71a7.021,7.021,0,0,0-7,7V81a7.021,7.021,0,0,0,7,7H81a7.021,7.021,0,0,0,7-7V71A7.021,7.021,0,0,0,81,64Z" transform="translate(-64 -64)" fill="#32353c"/>
  <path id="Trazado_7" data-name="Trazado 7" d="M172.5,131a1.5,1.5,0,1,1,1.5-1.5A1.5,1.5,0,0,1,172.5,131Zm-6.5,1a4,4,0,1,1-4,4,4,4,0,0,1,4-4m0-2a6,6,0,1,0,6,6A6,6,0,0,0,166,130Z" transform="translate(-154 -124)" fill="#32353c"/>
</svg>
